<?xml version="1.0" encoding="utf-8"?>
<!-- Generator: Adobe Illustrator 22.0.0, SVG Export Plug-In . SVG Version: 6.00 Build 0)  -->
<svg version="1.1" id="图层_1" xmlns="http://www.w3.org/2000/svg" xmlns:xlink="http://www.w3.org/1999/xlink" x="0px" y="0px"
	 viewBox="0 0 154.6 50" style="enable-background:new 0 0 154.6 50;" xml:space="preserve">
<style type="text/css">
	.st0{fill:#1A1A1A;}
	.st1{fill:#808080;}
</style>
<g>
	<path class="st0" d="M32.5,13.1v3.3H17.6v13.1h16.5v3H0v-3h11.3V7.3h6.2v5.8H32.5z"/>
	<path class="st0" d="M35.4,32.8l-1-3h1.5l1.4-7.3h5.9l-2,10.3H35.4z M36.9,13.2l-2.1-5.7h5.9l1.3,3.5h1.1L42,13.2H36.9z M36.9,20.7
		L34.9,15h5.9l1.3,3.5h1.1L42,20.7H36.9z M66.9,23.4V27h1.3v2.8h-1.3v2.9h-9.8l-0.9-2.3h4.9v-0.7H44.9v-6.4h-1.3v-3.2h1.3v-6.8h22
		v6.8h1.3v3.2H66.9z M68,9.4v2.9H43.9l2.8-4.9h6.4l-1.1,1.9H68z M51.1,20.2h9.7v-3.9h-9.7V20.2z M60.8,23.4h-9.7V27h9.7V23.4z
		 M53.2,19.6L52,16.9h6.2l1.2,2.8H53.2z M53.9,26.6l-1.2-2.8h6.1l1.2,2.8H53.9z"/>
	<path class="st0" d="M100.8,18.2V20H70.2v-1.8h-0.8L68.5,16h2.3l1.5-1.6h-3.8v-2.6h34.1v2.6h-3.9l1.6,1.6h2.3l-0.9,2.2H100.8z
		 M76.8,7.4l0.9,1.7h1.5L78,11.2h-6.4l-1.9-3.9H76.8z M100.3,20.7v2.8H70.7v-2.8H100.3z M100.3,24.2V27H70.7v-2.8H100.3z M70.7,32.8
		h21.5l1.6-2.1H77.2v-0.9h16.5v3h6.6v-5.1H70.7V32.8z M88.7,17.2h5.5l-2.5-2.8H79.2l-2.5,2.8h5.5v-1.9h6.4V17.2z M87.5,7.4l0.9,1.7
		h1.5l-1.2,2.1h-6.4l-1.9-3.9H87.5z M100.8,7.4l-1.9,3.9h-6.4l-1.2-2.1h1.5l0.9-1.7H100.8z"/>
	<path class="st0" d="M107.2,18.6v-11h4.7v11h4.3v2.7h-1.6v9.6h1.6l-0.6,1.9h-5.5V21.3h-0.8l-1.1,11.5h-5l-0.4-1.9h0.9l0.9-9.6h-1.8
		v-2.7H107.2z M106.2,9.7l0.5,7.8h-3.3l-0.5-7.8H106.2z M116.2,9.7l-0.5,7.8h-3.3l0.5-7.8H116.2z M131.2,18.2v1.2h5v2.5h-5v1.2h5
		v2.4h-5v1.2h5v2.4h-5v1.2h5.5l-1,2.4h-17.9v-9.1H116l-0.5-2.3h1.5l1.7-3.4h5l-0.6,1.2h3v-1.2H131.2z M126.5,8.1v9H122v-6.9h-5.1
		V8.1H126.5z M121.6,11.2l-0.6,2.2h-3.9v-2.2H121.6z M121.6,14.4l-0.6,2.2h-3.9v-2.2H121.6z M122.8,23.1h3.4v-1.2h-3.4V23.1z
		 M122.8,26.7h3.4v-1.2h-3.4V26.7z M122.8,30.4h3.4v-1.2h-3.4V30.4z M136.7,8.1v9h-4.5v-6.9h-5.1V8.1H136.7z M131.8,11.2l-0.6,2.2
		h-3.9v-2.2H131.8z M131.8,14.4l-0.6,2.2h-3.9v-2.2H131.8z"/>
</g>
<g>
	<path class="st1" d="M1.9,42.5L0.2,36h0.9l1,4.3c0.1,0.5,0.2,0.9,0.3,1.3c0.2-0.7,0.3-1.1,0.3-1.2L3.9,36h1l0.9,3.3
		c0.2,0.8,0.4,1.6,0.5,2.3c0.1-0.4,0.2-0.9,0.3-1.4l1-4.2h0.9l-1.8,6.6H6l-1.4-5c-0.1-0.4-0.2-0.7-0.2-0.8c-0.1,0.3-0.1,0.6-0.2,0.8
		l-1.4,5H1.9z"/>
	<path class="st1" d="M11.1,42.5L9.3,36h0.9l1,4.3c0.1,0.5,0.2,0.9,0.3,1.3c0.2-0.7,0.3-1.1,0.3-1.2L13,36h1l0.9,3.3
		c0.2,0.8,0.4,1.6,0.5,2.3c0.1-0.4,0.2-0.9,0.3-1.4l1-4.2h0.9l-1.8,6.6h-0.8l-1.4-5c-0.1-0.4-0.2-0.7-0.2-0.8
		c-0.1,0.3-0.1,0.6-0.2,0.8l-1.4,5H11.1z"/>
	<path class="st1" d="M20.2,42.5L18.5,36h0.9l1,4.3c0.1,0.5,0.2,0.9,0.3,1.3c0.2-0.7,0.3-1.1,0.3-1.2l1.2-4.4h1l0.9,3.3
		c0.2,0.8,0.4,1.6,0.5,2.3c0.1-0.4,0.2-0.9,0.3-1.4l1-4.2h0.9l-1.8,6.6h-0.8l-1.4-5c-0.1-0.4-0.2-0.7-0.2-0.8
		c-0.1,0.3-0.1,0.6-0.2,0.8l-1.4,5H20.2z"/>
	<path class="st1" d="M27.6,42.5v-0.9h0.9v0.9H27.6z"/>
	<path class="st1" d="M29.8,40.4l0.8-0.1c0,0.3,0.1,0.6,0.3,0.8c0.1,0.2,0.4,0.4,0.7,0.5c0.3,0.1,0.6,0.2,1,0.2c0.3,0,0.6,0,0.9-0.1
		c0.3-0.1,0.4-0.2,0.6-0.4c0.1-0.2,0.2-0.4,0.2-0.6c0-0.2-0.1-0.4-0.2-0.5c-0.1-0.2-0.3-0.3-0.6-0.4c-0.2-0.1-0.6-0.2-1.2-0.3
		c-0.6-0.1-1-0.3-1.3-0.4c-0.3-0.2-0.5-0.4-0.7-0.6c-0.2-0.2-0.2-0.5-0.2-0.8c0-0.3,0.1-0.6,0.3-0.9c0.2-0.3,0.5-0.5,0.8-0.7
		c0.4-0.1,0.8-0.2,1.2-0.2c0.5,0,0.9,0.1,1.3,0.2c0.4,0.2,0.7,0.4,0.9,0.7c0.2,0.3,0.3,0.6,0.3,1L34,37.9c0-0.4-0.2-0.7-0.5-0.9
		c-0.3-0.2-0.6-0.3-1.1-0.3c-0.5,0-0.9,0.1-1.1,0.3c-0.2,0.2-0.4,0.4-0.4,0.7c0,0.2,0.1,0.4,0.3,0.6c0.2,0.2,0.6,0.3,1.3,0.5
		c0.7,0.2,1.2,0.3,1.5,0.4c0.4,0.2,0.7,0.4,0.8,0.7c0.2,0.3,0.3,0.6,0.3,0.9c0,0.3-0.1,0.7-0.3,1c-0.2,0.3-0.5,0.5-0.9,0.7
		c-0.4,0.2-0.8,0.3-1.3,0.3c-0.6,0-1.1-0.1-1.5-0.3c-0.4-0.2-0.7-0.4-0.9-0.8C29.9,41.3,29.8,40.9,29.8,40.4z"/>
	<path class="st1" d="M36.4,42.5V36h0.9v2.7h3.4V36h0.9v6.6h-0.9v-3.1h-3.4v3.1H36.4z"/>
	<path class="st1" d="M42.5,42.5l2.5-6.6H46l2.7,6.6h-1l-0.8-2h-2.7l-0.7,2H42.5z M44.4,39.8h2.2L46,38c-0.2-0.6-0.4-1-0.5-1.4
		c-0.1,0.4-0.2,0.8-0.4,1.3L44.4,39.8z"/>
	<path class="st1" d="M49.6,42.5V36h0.9l3.4,5.1V36h0.8v6.6h-0.9l-3.4-5.2v5.2H49.6z"/>
	<path class="st1" d="M59.5,40v-0.8l2.8,0v2.4c-0.4,0.3-0.9,0.6-1.3,0.8c-0.5,0.2-0.9,0.3-1.4,0.3c-0.6,0-1.2-0.1-1.8-0.4
		c-0.5-0.3-0.9-0.7-1.2-1.2c-0.3-0.5-0.4-1.1-0.4-1.7c0-0.6,0.1-1.2,0.4-1.8c0.3-0.6,0.7-1,1.2-1.2c0.5-0.3,1.1-0.4,1.7-0.4
		c0.5,0,0.9,0.1,1.3,0.2c0.4,0.2,0.7,0.4,0.9,0.6c0.2,0.3,0.4,0.6,0.5,1.1L61.4,38c-0.1-0.3-0.2-0.6-0.4-0.8
		c-0.1-0.2-0.4-0.3-0.6-0.5c-0.3-0.1-0.6-0.2-0.9-0.2c-0.4,0-0.7,0.1-1,0.2s-0.5,0.3-0.7,0.5c-0.2,0.2-0.3,0.4-0.4,0.6
		c-0.2,0.4-0.3,0.8-0.3,1.3c0,0.6,0.1,1.1,0.3,1.5c0.2,0.4,0.5,0.7,0.9,0.9c0.4,0.2,0.8,0.3,1.2,0.3c0.4,0,0.7-0.1,1.1-0.2
		c0.4-0.1,0.6-0.3,0.8-0.5V40H59.5z"/>
	<path class="st1" d="M63.8,42.5V36h0.9v2.7h3.4V36H69v6.6h-0.9v-3.1h-3.4v3.1H63.8z"/>
	<path class="st1" d="M70,42.5l2.5-6.6h0.9l2.7,6.6h-1l-0.8-2h-2.7l-0.7,2H70z M71.8,39.8h2.2L73.4,38c-0.2-0.6-0.4-1-0.5-1.4
		c-0.1,0.4-0.2,0.8-0.4,1.3L71.8,39.8z"/>
	<path class="st1" d="M77.1,42.5V36H78v6.6H77.1z"/>
	<path class="st1" d="M81.6,42.5v-2.8L79.1,36h1.1l1.3,2c0.2,0.4,0.5,0.7,0.7,1.1c0.2-0.3,0.4-0.7,0.7-1.2l1.3-1.9h1l-2.6,3.8v2.8
		H81.6z"/>
	<path class="st1" d="M90.4,36h0.9v3.8c0,0.7-0.1,1.2-0.2,1.6c-0.1,0.4-0.4,0.7-0.8,0.9c-0.4,0.2-0.9,0.4-1.5,0.4
		c-0.6,0-1.1-0.1-1.5-0.3c-0.4-0.2-0.7-0.5-0.8-0.9c-0.2-0.4-0.3-0.9-0.3-1.6V36H87v3.8c0,0.6,0.1,1,0.2,1.3
		c0.1,0.3,0.3,0.5,0.5,0.6c0.3,0.1,0.6,0.2,0.9,0.2c0.6,0,1.1-0.1,1.4-0.4c0.3-0.3,0.4-0.8,0.4-1.7V36z"/>
	<path class="st1" d="M94.8,42.5v-2.8L92.2,36h1.1l1.3,2c0.2,0.4,0.5,0.7,0.7,1.1c0.2-0.3,0.4-0.7,0.7-1.2l1.3-1.9h1l-2.6,3.8v2.8
		H94.8z"/>
	<path class="st1" d="M97.8,42.5l2.5-6.6h0.9l2.7,6.6h-1l-0.8-2h-2.7l-0.7,2H97.8z M99.7,39.8h2.2l-0.7-1.8c-0.2-0.6-0.4-1-0.5-1.4
		c-0.1,0.4-0.2,0.8-0.4,1.3L99.7,39.8z"/>
	<path class="st1" d="M104.3,39.3c0-1.1,0.3-1.9,0.9-2.6c0.6-0.6,1.3-0.9,2.3-0.9c0.6,0,1.2,0.1,1.6,0.4c0.5,0.3,0.9,0.7,1.1,1.2
		c0.3,0.5,0.4,1.1,0.4,1.8c0,0.7-0.1,1.3-0.4,1.8c-0.3,0.5-0.6,0.9-1.1,1.2c-0.5,0.3-1,0.4-1.6,0.4c-0.6,0-1.2-0.1-1.7-0.4
		c-0.5-0.3-0.9-0.7-1.1-1.2C104.5,40.5,104.3,39.9,104.3,39.3z M105.2,39.4c0,0.8,0.2,1.4,0.6,1.9c0.4,0.5,1,0.7,1.6,0.7
		c0.7,0,1.2-0.2,1.6-0.7c0.4-0.5,0.6-1.1,0.6-2c0-0.5-0.1-1-0.3-1.4c-0.2-0.4-0.4-0.7-0.8-0.9c-0.3-0.2-0.7-0.3-1.2-0.3
		c-0.6,0-1.1,0.2-1.6,0.6C105.5,37.7,105.2,38.4,105.2,39.4z"/>
	<path class="st1" d="M111.8,42.5v-0.9h0.9v0.9H111.8z"/>
	<path class="st1" d="M118.8,40.2l0.9,0.2c-0.2,0.7-0.5,1.3-1,1.6c-0.5,0.4-1,0.6-1.7,0.6c-0.7,0-1.3-0.1-1.7-0.4
		c-0.4-0.3-0.8-0.7-1-1.2c-0.2-0.5-0.3-1.1-0.3-1.8c0-0.7,0.1-1.3,0.4-1.8c0.3-0.5,0.6-0.9,1.1-1.2c0.5-0.3,1-0.4,1.6-0.4
		c0.7,0,1.2,0.2,1.7,0.5c0.4,0.3,0.8,0.8,0.9,1.4l-0.9,0.2c-0.2-0.5-0.4-0.8-0.7-1c-0.3-0.2-0.7-0.3-1.1-0.3c-0.5,0-0.9,0.1-1.3,0.4
		c-0.3,0.2-0.6,0.6-0.7,1c-0.1,0.4-0.2,0.8-0.2,1.3c0,0.6,0.1,1,0.2,1.5c0.2,0.4,0.4,0.7,0.8,0.9c0.3,0.2,0.7,0.3,1.1,0.3
		c0.5,0,0.9-0.1,1.2-0.4C118.5,41.2,118.7,40.8,118.8,40.2z"/>
	<path class="st1" d="M120.6,39.3c0-1.1,0.3-1.9,0.9-2.6c0.6-0.6,1.3-0.9,2.3-0.9c0.6,0,1.2,0.1,1.6,0.4c0.5,0.3,0.9,0.7,1.1,1.2
		c0.3,0.5,0.4,1.1,0.4,1.8c0,0.7-0.1,1.3-0.4,1.8c-0.3,0.5-0.6,0.9-1.1,1.2c-0.5,0.3-1,0.4-1.6,0.4c-0.6,0-1.2-0.1-1.7-0.4
		c-0.5-0.3-0.9-0.7-1.1-1.2C120.8,40.5,120.6,39.9,120.6,39.3z M121.5,39.4c0,0.8,0.2,1.4,0.6,1.9c0.4,0.5,1,0.7,1.6,0.7
		c0.7,0,1.2-0.2,1.6-0.7c0.4-0.5,0.6-1.1,0.6-2c0-0.5-0.1-1-0.3-1.4c-0.2-0.4-0.4-0.7-0.8-0.9c-0.3-0.2-0.7-0.3-1.2-0.3
		c-0.6,0-1.1,0.2-1.6,0.6C121.8,37.7,121.5,38.4,121.5,39.4z"/>
	<path class="st1" d="M128.2,42.5V36h1.3l1.6,4.6c0.1,0.4,0.2,0.8,0.3,1c0.1-0.2,0.2-0.6,0.3-1.1l1.6-4.6h1.2v6.6h-0.8v-5.5
		l-1.9,5.5H131l-1.9-5.6v5.6H128.2z"/>
</g>
</svg>
