<svg id="组_2" data-name="组 2" xmlns="http://www.w3.org/2000/svg" width="245" height="54" viewBox="0 0 245 54">
  <metadata><?xpacket begin="﻿" id="W5M0MpCehiHzreSzNTczkc9d"?>
<x:xmpmeta xmlns:x="adobe:ns:meta/" x:xmptk="Adobe XMP Core 5.6-c138 79.159824, 2016/09/14-01:09:01        ">
   <rdf:RDF xmlns:rdf="http://www.w3.org/1999/02/22-rdf-syntax-ns#">
      <rdf:Description rdf:about=""/>
   </rdf:RDF>
</x:xmpmeta>
                                                                                                    
                                                                                                    
                                                                                                    
                                                                                                    
                                                                                                    
                                                                                                    
                                                                                                    
                                                                                                    
                                                                                                    
                                                                                                    
                                                                                                    
                                                                                                    
                                                                                                    
                                                                                                    
                                                                                                    
                                                                                                    
                                                                                                    
                                                                                                    
                                                                                                    
                                                                                                    
                           
<?xpacket end="w"?></metadata>
<defs>
    <style>
      .cls-1 {
        font-size: 12px;
        fill: #8e8e8e;
        font-family: "Adobe Heiti Std";
        text-transform: uppercase;
      }

      .cls-2 {
        fill: #333;
        fill-rule: evenodd;
      }
    </style>
  </defs>
  <text id="www.zhongtianda.com" class="cls-1" transform="translate(-1.038 49.522) scale(0.945 0.946)">www.zhongtianda.com</text>
  <path id="形状_4" data-name="形状 4" class="cls-2" d="M18.141,37.946v-5.83H0V7.292H18.141V3.013h8.305V7.292H44.635V32.116H36.283V11.429H26.446v16.6h9.6l-2.645,4.09h-6.96v5.83h-8.3Zm-9.976-9.92h9.976v-16.6H8.165v16.6Zm46.174,3.62c7.47-1.6,15.729-5.548,18.188-11.19H54.061V15.942H73.27v-7.9H55.592V3.577H98.928V8.044H81.2v7.9h19.162v4.514H84.545L97.3,34.044h2.273l-1.207,3.949h-7.61l-11.739-13.4C74.662,31.6,64.5,36.112,54.339,37.993V31.646Zm54.866,6.112V33.386h2.459V15.661h-2.459V11.194h11V37.758h-11Zm2-27.458-1.67-6.817h8.3L118.9,7.433h1.391L119.6,10.3h-8.4Zm11.925,27.458-2.784-4.373H155l-2.738,4.373H123.125ZM141.638,3.483V8.42H154.4v4.749H141.5c-0.047.752-.186,1.5-0.279,2.209h5.058l5.567,12.836H154.4l-1.392,4h-8.212l-5.058-11.9c-2.737,6.112-8.445,10.25-17.77,11.9V26.051c7.1-1.646,10.485-6.583,11.275-12.883H121.965V8.42h11.506V3.483h8.167Z"/>
</svg>
